<svg id="f6e6ad8f-c9c5-46e5-86c4-107b03d45256" data-name="圖層 6" xmlns="http://www.w3.org/2000/svg" viewBox="0 0 684.91 327.57"><defs><style>.bb5a4e9d-4b34-4ee7-b458-02c3df4f7f9a{fill:#ff8b00;}.aa953137-27c7-4d8c-ad32-b5007e463132{fill:#13c600;}</style></defs><title>logo-d</title><path d="M927.94,519.37c-.13-.26-.29-.5-.44-.76l0,0L854.43,378l0,0a17.3,17.3,0,0,0-29.2.16l0,0-.41.77h0l-74.6,138.82,0,0c-.16.25-.32.49-.46.75a16.55,16.55,0,0,0,29.15,15.66c.14-.26.25-.53.37-.79l0,0,60.31-112.23,58.6,112.69,0,0c.12.26.22.53.36.79a16.54,16.54,0,1,0,29.35-15.26Z" transform="translate(-594 -369.48)"/><path d="M1274.47,519.37c-.13-.26-.29-.5-.44-.76l0,0L1201,378l0,0a17.3,17.3,0,0,0-29.2.16l0,0-.41.77h0l-74.6,138.82,0,0c-.15.25-.31.49-.45.75a16.55,16.55,0,0,0,29.15,15.66c.14-.26.25-.53.37-.79l0,0,60.31-112.23,58.6,112.69,0,0c.12.26.22.53.36.79a16.54,16.54,0,1,0,29.35-15.26Z" transform="translate(-594 -369.48)"/><path d="M635.5,488.73v39.21h0a16.52,16.52,0,0,0,33,0h0v-37a24.32,24.32,0,0,1-33.09-2.17Z" transform="translate(-594 -369.48)"/><path d="M711.3,369.58a.18.18,0,0,0-.1,0c-.77,0-4.3-.08-4.3-.08H651.18a16.56,16.56,0,0,0-15.66,15.66c0,.29,0,.57,0,.87v69.25a24.34,24.34,0,0,1,33.09-2.18V402.56H706a27,27,0,0,1,0,54h-34a24.36,24.36,0,0,1-2,33.09H706.9s3.53-.05,4.3-.09h.1a60.08,60.08,0,0,0,0-119.95Z" transform="translate(-594 -369.48)"/><circle class="bb5a4e9d-4b34-4ee7-b458-02c3df4f7f9a" cx="24.38" cy="103.39" r="24.38"/><circle class="bb5a4e9d-4b34-4ee7-b458-02c3df4f7f9a" cx="219.41" cy="101.65" r="24.38"/><circle class="bb5a4e9d-4b34-4ee7-b458-02c3df4f7f9a" cx="567.68" cy="101.65" r="24.38"/><path d="M942,486.53V526.2h0c0,.29,0,.58,0,.87a16.55,16.55,0,0,0,33.09,0c0-.29,0-.58-.05-.87h.05V489.87A24.3,24.3,0,0,1,942,486.53Z" transform="translate(-594 -369.48)"/><path d="M1083.33,517.29c-.18-.24-.37-.45-.55-.67l0,0-56.88-76.89,45.4-40.38,0,0c.23-.18.46-.35.68-.54A16.54,16.54,0,0,0,1050,374c-.22.19-.42.41-.62.61l0,0-74.27,66.07V385.15H975a16.52,16.52,0,0,0-33,0h0v69.31a24.35,24.35,0,0,1,41.74,22.8l17.39-15.48,55.1,74.49,0,0c.16.24.3.49.48.73a16.54,16.54,0,1,0,26.6-19.68Z" transform="translate(-594 -369.48)"/><circle class="aa953137-27c7-4d8c-ad32-b5007e463132" cx="334.34" cy="101.65" r="24.38"/><path d="M698.62,664.53V683c0,3.12-.76,5.46-2.26,7s-3.9,2.31-7,2.25H635.56q-4.68,0-6.93-2.25t-2.35-7V664.53q0-4.42,3.56-4.43t3.64,4.34v16.91q0,3.82,3.91,3.82h21.07V654.29H638.69q-4.7,0-6.81-2t-1.78-6.51v-17c0-2.9,1.21-4.34,3.64-4.34a3.35,3.35,0,0,1,2.65,1,4.47,4.47,0,0,1,.91,3v14.83q0,3.81,3.73,3.81h17.43v-25c0-3.17,1.24-4.77,3.73-4.77s3.64,1.6,3.64,4.77v25h18q3.82,0,3.82-3.81V628.62q0-4.15,3.55-4.16t3.65,4.42v16.91q.6,9.11-8.59,8.5H665.83v30.88H687.6q3.64,0,3.82-3.82V664.44q0-4.43,3.64-4.42T698.62,664.53Z" transform="translate(-594 -369.48)"/><path d="M814.59,645.53l-1.22,25.76q-.6,12.66-2.16,17.26-2.36,6.76-13.36,6.77c-2.66,0-4-1.25-4-3.73q0-4,3.9-4h3.12a4.17,4.17,0,0,0,3.65-1.91,11.46,11.46,0,0,0,1.56-5.55q.35-4.77.87-14.14l.86-18.3q.09-3.12-3.29-3.12H797v.35a159.38,159.38,0,0,1-3.12,26.71,50.06,50.06,0,0,1-6.76,17.52q-4.61,7.2-7.29,7.2c-2.31,0-3.47-1.25-3.47-3.73q0-1.21,2.34-4.08a.34.34,0,0,1-.26.09q-3.37.78-17.52,2.43-16.56,1.9-19,1.9c-2.49,0-3.73-1.12-3.73-3.38a3.08,3.08,0,0,1,1.48-2.77,7.28,7.28,0,0,1,3.9-.87l13.53-.69v-5.12H745c-2.14,0-3.21-.93-3.21-2.78a2.45,2.45,0,0,1,.82-2,3.62,3.62,0,0,1,2.39-.7h12.14v-3.9H743.56q-3.3,0-3.3-2.77c0-1.79,1.1-2.69,3.3-2.69h13.53v-3.56h-9.63q-6.42,0-6.42-6.42v-4.16q0-6.42,6.42-6.42h9.71V640.5h-4.68a4.78,4.78,0,0,1-5.2-5.2v-4.94h-5.9q-3.21,0-3.21-2.87c0-1.9,1.07-2.86,3.21-2.86h5.9v-4.25c0-1.91,1-2.86,3-2.86s3,1,3,2.86v4.25h14.31v-4.25c0-1.91,1-2.86,2.95-2.86s3,1,3,2.86v4.25h7.8c2.14,0,3.21,1,3.21,2.86s-1.07,2.87-3.21,2.87h-7.8v4.94a5.26,5.26,0,0,1-1.35,3.82,5.15,5.15,0,0,1-3.86,1.38h-4.68v4.25h9.89q6.4,0,6.41,6.42v4.16q0,6.42-6.41,6.42h-9.89v3.56h13.79c2.2,0,3.29.92,3.29,2.77s-1.09,2.69-3.29,2.69H763.68v3.9h12.14a3.64,3.64,0,0,1,2.39.7,2.48,2.48,0,0,1,.82,2c0,1.85-1.07,2.78-3.21,2.78H763.68v4.6L778,683.35c1.68-.18,2.51.69,2.51,2.6v.26a44,44,0,0,0,6.07-12.84,74.2,74.2,0,0,0,2.95-17.26l.78-10.84v-.69h-6.85q-3.81,0-3.81-3.64t3.81-3.56h6.85l.09-16q0-3.47,3.21-3.47a3.28,3.28,0,0,1,2.56,1,3.87,3.87,0,0,1,.91,2.73L797,637.38h8.76Q814.59,637.38,814.59,645.53Zm-57.5,11V650h-7.72a2.48,2.48,0,0,0-1.87.6,3.61,3.61,0,0,0-.56,2.35c0,2.42.81,3.64,2.43,3.64Zm7.89-21a2.08,2.08,0,0,0,2.6-2.6v-2.6H753.27V633a2.08,2.08,0,0,0,2.6,2.6Zm-1.3,14.4v6.59h8a2.17,2.17,0,0,0,1.82-.78,5.49,5.49,0,0,0,0-5,2.17,2.17,0,0,0-1.82-.78Z" transform="translate(-594 -369.48)"/><path d="M884.51,654.73a2.52,2.52,0,0,1,1.86.73,3.89,3.89,0,0,1,1,2,2.82,2.82,0,0,1-.43,2.21,3.68,3.68,0,0,1-1.91,1.52q-4.26,1.56-9.8,3.21v25.24a5.89,5.89,0,0,1-6.51,6.5h-8.41a3.87,3.87,0,0,1-2.73-.91,4,4,0,0,1,0-5.29,3.87,3.87,0,0,1,2.73-.91h4.42a3,3,0,0,0,2.26-.82,3.09,3.09,0,0,0,.78-2.21V666.78q-5.64,1.65-8.85,2.43a6.84,6.84,0,0,1-1.3.17,3.33,3.33,0,0,1-2.6-1,3.67,3.67,0,0,1-.95-2.6q0-2.78,3.55-3.73l5-1.39q1.13-.35,2.43-.69c.87-.23,1.76-.49,2.69-.78V640.76h-9.71c-2.66,0-4-1.12-4-3.38s1.33-3.29,4-3.29h9.54V621.77q0-4.15,3.81-4.16,3.65,0,3.64,4.16v12.32h7.38c2.6,0,3.9,1.09,3.9,3.29s-1.3,3.38-3.9,3.38h-7.2v16.4l8.24-2.26A5,5,0,0,1,884.51,654.73Zm47-30a3.57,3.57,0,0,1,0,5.12,4.79,4.79,0,0,1-3.17.91h-12v56.37q0,9-8.93,9h-8.24q-4.08,0-4.08-3.73c0-2.48,1.27-3.73,3.82-3.73h6.76a3,3,0,0,0,2.26-.82,3.09,3.09,0,0,0,.78-2.21v-54.9H888.76a4.79,4.79,0,0,1-3.17-.91,3.57,3.57,0,0,1,0-5.12,4.85,4.85,0,0,1,3.17-.91H928.3A4.85,4.85,0,0,1,931.47,624.76Z" transform="translate(-594 -369.48)"/><path d="M1048,652.12q0,3.64-4.25,3.65h-35.13v36.94q0,4.34-3.81,4.34t-3.73-4.34V655.77H973.51a4.59,4.59,0,0,1-3.08-.87,3.48,3.48,0,0,1-1-2.78,3.35,3.35,0,0,1,1-2.68,4.59,4.59,0,0,1,3.08-.87h27.58V622q0-4.34,3.81-4.34t3.73,4.34v6.68H1036a4.6,4.6,0,0,1,3.08.87,4.1,4.1,0,0,1,0,5.37,4.6,4.6,0,0,1-3.08.87h-27.32v12.75h35.13C1046.59,648.57,1048,649.76,1048,652.12Zm-11.32,25.94c1.94,1.56,2.9,2.8,2.9,3.73a3.84,3.84,0,0,1-.95,2.9,4.14,4.14,0,0,1-3,.91q-1.82,0-8.5-5.2-3.56-2.68-14.22-9.37-2.69-1.56-2.69-3.47a2.73,2.73,0,0,1,1.17-2.38,4.35,4.35,0,0,1,2.56-.83q2.09,0,13.18,7.12Q1033.79,675.71,1036.69,678.06Z" transform="translate(-594 -369.48)"/><path d="M1162.94,666.18q0,3.38-4.25,3.38h-31V692a5,5,0,0,1-.91,3.3,3.7,3.7,0,0,1-2.91,1q-3.81,0-3.81-4.34V669.56h-30.44a5,5,0,0,1-3.17-.83,3.14,3.14,0,0,1-1-2.55q0-3.39,4.17-3.39H1120V629.14h-26.28c-2.66,0-4-1.12-4-3.38s1.33-3.38,4-3.38h59.93q4.24,0,4.25,3.38c0,2.26-1.42,3.38-4.25,3.38h-26v33.65h31Q1162.94,662.79,1162.94,666.18Zm-63.57-13.62q-1.39-3.64-3.73-8.76a29.58,29.58,0,0,1-1.22-2.91,6.47,6.47,0,0,1-.43-2,2.42,2.42,0,0,1,1-2,3.86,3.86,0,0,1,2.47-.78,3.7,3.7,0,0,1,2.43.87,9.1,9.1,0,0,1,2,2.6q6,11.7,6,14a3.08,3.08,0,0,1-1.26,2.6,4.54,4.54,0,0,1-2.82,1C1102,657.07,1100.52,655.57,1099.37,652.56Zm53.77-16.31a2.81,2.81,0,0,1,1.12,2.35q0,2.5-4.94,12.92c-1.73,3.58-3.38,5.38-4.94,5.38a5.16,5.16,0,0,1-3.17-.79,3,3,0,0,1-1-2.51,8.84,8.84,0,0,1,1.3-3.64l5.11-11.88c.87-1.8,2-2.69,3.38-2.69A5.08,5.08,0,0,1,1153.14,636.25Z" transform="translate(-594 -369.48)"/><path d="M1269.37,649.61l-1.65-2.08-63,3.55a3.88,3.88,0,0,1-3-.86,3.78,3.78,0,0,1-1-2.87,3.23,3.23,0,0,1,2.77-3.38l4.6-.26,6.59-.08A172.66,172.66,0,0,0,1226,622a8.94,8.94,0,0,1,2.21-3.34,4.3,4.3,0,0,1,2.9-1.08q3.74,0,3.73,3.29,0,2.26-6.68,13.1l-5.89,9.37q30.18-.71,38.76-1.3l1.65-.09q-6.15-6.86-9.19-9c-1.85-1.27-2.78-2.55-2.78-3.82a3.18,3.18,0,0,1,.78-2.34A3.46,3.46,0,0,1,1254,626q2.16,0,13.61,10.84,11.28,10.75,11.28,13.88,0,3.46-3.9,3.47Q1272.74,654.21,1269.37,649.61ZM1211,691.85c-1.53-1.51-2.19-3.88-2-7.11V668q-.62-9.9,9.36-9.28H1261q10.14-.62,9.45,9.28v16.74q.6,9.88-9.45,9.36h-42.59Q1213.26,694.1,1211,691.85Zm52.16-8.94V670.08q0-4.77-4.59-4.77h-37.47q-4.68,0-4.68,4.59v12.84q0,4.68,4.51,4.68h37.46Q1263.12,687.42,1263.12,682.91Z" transform="translate(-594 -369.48)"/><circle class="bb5a4e9d-4b34-4ee7-b458-02c3df4f7f9a" cx="34.66" cy="210.11" r="6.09"/><circle class="bb5a4e9d-4b34-4ee7-b458-02c3df4f7f9a" cx="74.71" cy="210.11" r="6.09"/><circle class="bb5a4e9d-4b34-4ee7-b458-02c3df4f7f9a" cx="114.76" cy="210.11" r="6.09"/><circle class="bb5a4e9d-4b34-4ee7-b458-02c3df4f7f9a" cx="154.81" cy="210.11" r="6.09"/><circle class="bb5a4e9d-4b34-4ee7-b458-02c3df4f7f9a" cx="194.86" cy="210.11" r="6.09"/><circle class="bb5a4e9d-4b34-4ee7-b458-02c3df4f7f9a" cx="234.91" cy="210.11" r="6.09"/><circle class="bb5a4e9d-4b34-4ee7-b458-02c3df4f7f9a" cx="274.96" cy="210.11" r="6.09"/><circle class="bb5a4e9d-4b34-4ee7-b458-02c3df4f7f9a" cx="315.01" cy="210.11" r="6.09"/><circle class="bb5a4e9d-4b34-4ee7-b458-02c3df4f7f9a" cx="355.07" cy="210.11" r="6.09"/><circle class="bb5a4e9d-4b34-4ee7-b458-02c3df4f7f9a" cx="395.12" cy="210.11" r="6.09"/><circle class="bb5a4e9d-4b34-4ee7-b458-02c3df4f7f9a" cx="435.17" cy="210.11" r="6.09"/><circle class="bb5a4e9d-4b34-4ee7-b458-02c3df4f7f9a" cx="475.22" cy="210.11" r="6.09"/><circle class="bb5a4e9d-4b34-4ee7-b458-02c3df4f7f9a" cx="515.27" cy="210.11" r="6.09"/><circle class="bb5a4e9d-4b34-4ee7-b458-02c3df4f7f9a" cx="555.32" cy="210.11" r="6.09"/><circle class="bb5a4e9d-4b34-4ee7-b458-02c3df4f7f9a" cx="595.37" cy="210.11" r="6.09"/><circle class="bb5a4e9d-4b34-4ee7-b458-02c3df4f7f9a" cx="635.42" cy="210.11" r="6.09"/><circle class="bb5a4e9d-4b34-4ee7-b458-02c3df4f7f9a" cx="675.47" cy="210.11" r="6.09"/></svg>